<svg xmlns="http://www.w3.org/2000/svg" viewBox="0 0 280 72" fill="none">
  <!-- Icon -->
  <rect width="56" height="56" rx="12" fill="rgba(255,255,255,0.15)" x="0" y="8"/>

  <!-- Cloud -->
  <path d="M40 38H19C16.2 38 14 35.8 14 33c0-2.4 1.7-4.4 4-4.9V28c0-3.9 3.1-7 7-7 1.9 0 3.6.7 4.9 1.9C30.8 22 32.3 21.5 34 21.5c2.9 0 5.2 2.3 5.2 5.2v.1c1.9.6 3.3 2.4 3.3 4.5C42.5 34 41.5 38 40 38z" fill="white" opacity="0.9"/>

  <!-- Trend line going down (cost reduction) -->
  <polyline points="17,44 23,40 30,43 40,34" stroke="#86efac" stroke-width="2.5" stroke-linecap="round" stroke-linejoin="round"/>
  <polyline points="37,32 40,34 38,37" stroke="#86efac" stroke-width="2.5" stroke-linecap="round" stroke-linejoin="round"/>

  <!-- Wordmark -->
  <text x="68" y="30" font-family="Segoe UI, Inter, Arial, sans-serif" font-size="10" font-weight="600" fill="rgba(255,255,255,0.6)" letter-spacing="2">AZURE</text>
  <text x="68" y="54" font-family="Segoe UI, Inter, Arial, sans-serif" font-size="22" font-weight="800" fill="white" letter-spacing="-0.5">Cost</text>
  <text x="138" y="54" font-family="Segoe UI, Inter, Arial, sans-serif" font-size="22" font-weight="300" fill="rgba(255,255,255,0.75)" letter-spacing="-0.5">Optimizer</text>

  <!-- Tagline -->
  <circle cx="68" cy="64" r="2.5" fill="#86efac"/>
  <text x="76" y="67" font-family="Segoe UI, Inter, Arial, sans-serif" font-size="8.5" font-weight="500" fill="rgba(255,255,255,0.5)" letter-spacing="0.8">Reduce spend · Enforce governance</text>
</svg>
