<svg xmlns="http://www.w3.org/2000/svg" viewBox="0 0 48 48" fill="none">
  <rect width="48" height="48" rx="10" fill="#1e40af"/>
  <defs>
    <linearGradient id="cg" x1="0%" y1="0%" x2="100%" y2="100%">
      <stop offset="0%" stopColor="#93c5fd"/>
      <stop offset="100%" stopColor="#3b82f6"/>
    </linearGradient>
    <linearGradient id="sg" x1="0%" y1="0%" x2="100%" y2="100%">
      <stop offset="0%" stopColor="#bfdbfe"/>
      <stop offset="100%" stopColor="#60a5fa"/>
    </linearGradient>
  </defs>
  <path d="M35 29H14C11.2 29 9 26.8 9 24c0-2.6 1.9-4.7 4.4-5.1C13 18.6 13 18.3 13 18c0-3.9 3.1-7 7-7 2.3 0 4.4 1.1 5.7 2.9C26.6 13.4 27.7 13 29 13c2.8 0 5 2.2 5 5 0 .3 0 .6-.1.9H34c2.4 0 4.3 1.9 4.3 4.3S37 29 35 29z" fill="url(#cg)" opacity="0.95"/>
  <path d="M24 14l-6 2.5v4.5c0 3.5 2.7 6.8 6 7.7 3.3-.9 6-4.2 6-7.7v-4.5L24 14z" fill="url(#sg)" opacity="0.9"/>
  <path d="M21.5 21l2 2 3.5-3.5" stroke="white" strokeWidth="1.8" strokeLinecap="round" strokeLinejoin="round"/>
</svg>
